<?xml version="1.0"?>
<svg xmlns="http://www.w3.org/2000/svg" width="512" height="512" viewBox="0 0 512 512"><g><path d="M501.66,475.34l-465-465A8.008,8.008,0,0,0,31,8H16a8,8,0,0,0-8,8V496a8,8,0,0,0,8,8H496a8,8,0,0,0,8-8V481A8.008,8.008,0,0,0,501.66,475.34ZM488,488H456V472a8,8,0,0,0-16,0v16H408v-8a8,8,0,0,0-16,0v8H360V472a8,8,0,0,0-16,0v16H312v-8a8,8,0,0,0-16,0v8H264V472a8,8,0,0,0-16,0v16H216v-8a8,8,0,0,0-16,0v8H168V472a8,8,0,0,0-16,0v16H120v-8a8,8,0,0,0-16,0v8H72V472a8,8,0,0,0-16,0v16H24V456H40a8,8,0,0,0,0-16H24V408h8a8,8,0,0,0,0-16H24V360H40a8,8,0,0,0,0-16H24V312h8a8,8,0,0,0,0-16H24V264H40a8,8,0,0,0,0-16H24V216h8a8,8,0,0,0,0-16H24V168H40a8,8,0,0,0,0-16H24V120h8a8,8,0,0,0,0-16H24V72H40a8,8,0,0,0,0-16H24V24h3.69L488,484.31Z"/><path d="M112,408H288a8,8,0,0,0,5.657-13.657l-176-176A8,8,0,0,0,104,224V400A8,8,0,0,0,112,408Zm8-164.687L268.686,392H120Z"/><path d="M493.71,278.51,233.49,18.29a8,8,0,0,0-11.31,0L154.29,86.18a8,8,0,0,0,0,11.31L414.51,357.71a8,8,0,0,0,11.31,0l67.89-67.89a8,8,0,0,0,0-11.31Zm-73.54,62.23-5.66-5.66,5.66-5.66a8,8,0,0,0-11.32-11.31l-5.65,5.65-11.32-11.31,16.97-16.97a8,8,0,0,0-11.31-11.31l-16.97,16.97-11.32-11.32,5.66-5.65a8,8,0,0,0-11.31-11.32l-5.66,5.66L346.63,267.2l16.97-16.97a8,8,0,1,0-11.32-11.32l-16.97,16.97L324,244.57l5.66-5.66a8,8,0,0,0-11.32-11.31l-5.65,5.65-11.32-11.31,16.97-16.97a8,8,0,0,0-11.31-11.31l-16.97,16.97-11.31-11.32,5.65-5.65a8,8,0,1,0-11.31-11.32L267.43,188l-11.31-11.31,16.97-16.97a8,8,0,0,0-11.32-11.32L244.8,165.37l-11.31-11.31,5.66-5.66a8,8,0,0,0-11.32-11.31l-5.65,5.65-11.32-11.31,16.97-16.97a8,8,0,0,0-11.31-11.31l-16.97,16.97L188.24,108.8l5.65-5.65a8,8,0,1,0-11.31-11.32l-5.66,5.66-5.65-5.66,39.59-39.59,248.9,248.9Zm50.91-50.92L222.18,40.92l5.65-5.66,248.9,248.91Z"/></g></svg>
